/* XPM */
static char *cf9db64ef3d846359ecd788c47ea22ddfkRX75WDdfggR7JO[] = {
/* columns rows colors chars-per-pixel */
"64 64 4 1 ",
"  c None",
". c #0C0C0C",
"X c #9A9A9A",
"o c #E9E9E9",
/* pixels */
"                                                                ",
"                                                                ",
"               ................................                 ",
"               ................................                 ",
"               ................................                 ",
"               ................................                 ",
"           ............oooo........oooo............             ",
"           ............oooo........oooo............             ",
"           ............oooo........oooo............             ",
"           ............oooo........oooo............             ",
"           ........oooooooooooooooooooooooo........             ",
"           ........oooooooooooooooooooooooo........             ",
"           ........oooooooooooooooooooooooo........             ",
"           ........oooooooooooooooooooooooo........             ",
"       ....oooooooo........oooooooo........oooooooo....         ",
"       ....oooooooo........oooooooo........oooooooo....         ",
"       ....oooooooo........oooooooo........oooooooo....         ",
"       ....oooooooo........oooooooo........oooooooo....         ",
"       ............oooooooo........oooooooo............         ",
"       ............oooooooo........oooooooo............         ",
"       ............oooooooo........oooooooo............         ",
"       ............oooooooo........oooooooo............         ",
"   ....oooo....oooo........oooooooo........oooo....oooo....     ",
"   ....oooo....oooo........oooooooo........oooo....oooo....     ",
"   ....oooo....oooo........oooooooo........oooo....oooo....     ",
"   ....oooo....oooo........oooooooo........oooo....oooo....     ",
"   ....oooooooooooooooooooooooooooooooooooooooooooooooo....     ",
"   ....oooooooooooooooooooooooooooooooooooooooooooooooo....     ",
"   ....oooooooooooooooooooooooooooooooooooooooooooooooo....     ",
"   ....oooooooooooooooooooooooooooooooooooooooooooooooo....     ",
"       ....XXXXooooooooooooXXXXXXXXooooooooooooXXXX....         ",
"       ....XXXXooooooooooooXXXXXXXXooooooooooooXXXX....         ",
"       ....XXXXooooooooooooXXXXXXXXooooooooooooXXXX....         ",
"       ....XXXXooooooooooooXXXXXXXXooooooooooooXXXX....         ",
"           ........oooooooooooooooooooooooo........             ",
"           ........oooooooooooooooooooooooo........             ",
"           ........oooooooooooooooooooooooo........             ",
"           ........oooooooooooooooooooooooo........             ",
"       ....oooooooo....XXXXooooooooXXXX....oooooooo....         ",
"       ....oooooooo....XXXXooooooooXXXX....oooooooo....         ",
"       ....oooooooo....XXXXooooooooXXXX....oooooooo....         ",
"       ....oooooooo....XXXXooooooooXXXX....oooooooo....         ",
"       ....oooooooo........................oooooooo....         ",
"       ....oooooooo........................oooooooo....         ",
"       ....oooooooo........................oooooooo....         ",
"       ....oooooooo........................oooooooo....         ",
"           ........XXXX....ooooXXXX....XXXX........             ",
"           ........XXXX....ooooXXXX....XXXX........             ",
"           ........XXXX....ooooXXXX....XXXX........             ",
"           ........XXXX....ooooXXXX....XXXX........             ",
"           ........................................             ",
"           ........................................             ",
"           ........................................             ",
"           ........................................             ",
"           ........................................             ",
"           ........................................             ",
"           ........................................             ",
"           ........................................             ",
"               ............        ............                 ",
"               ............        ............                 ",
"               ............        ............                 ",
"               ............        ............                 ",
"                                                                ",
"                                                                "
};
