/* XPM */
static char *_15e2dfdd0e74ec6e6baa912ad5f016cfhunRQ744EoRLhc4[] = {
/* columns rows colors chars-per-pixel */
"64 64 4 1 ",
"  c None",
". c #0C0C0C",
"X c #9A9A9A",
"o c #E9E9E9",
/* pixels */
"                     ................................           ",
"                     ................................           ",
"                     ................................           ",
"                     ................................           ",
"                 ........................................       ",
"                 ........................................       ",
"                 ........................................       ",
"                 ........................................       ",
"                 ................................oooo....       ",
"                 ................................oooo....       ",
"                 ................................oooo....       ",
"                 ................................oooo....       ",
"             ........................XXXXoooooooooooo....       ",
"             ........................XXXXoooooooooooo....       ",
"             ........................XXXXoooooooooooo....       ",
"             ........................XXXXoooooooooooo....       ",
"             ................XXXXoooooooooooo............       ",
"             ................XXXXoooooooooooo............       ",
"             ................XXXXoooooooooooo............       ",
"             ................XXXXoooooooooooo............       ",
"             ................................oooooooo....       ",
"             ................................oooooooo....       ",
"             ................................oooooooo....       ",
"             ................................oooooooo....       ",
"                 ........oooo....oooooooooooo............       ",
"                 ........oooo....oooooooooooo............       ",
"                 ........oooo....oooooooooooo............       ",
"                 ........oooo....oooooooooooo............       ",
"                     ....oooooooooooooooooooooooooooo....       ",
"                     ....oooooooooooooooooooooooooooo....       ",
"                     ....oooooooooooooooooooooooooooo....       ",
"                     ....oooooooooooooooooooooooooooo....       ",
"                         ........ooooooooooooXXXX....           ",
"                         ........ooooooooooooXXXX....           ",
"                         ........ooooooooooooXXXX....           ",
"                         ........ooooooooooooXXXX....           ",
"                         ........................               ",
"                         ........................               ",
"                         ........................               ",
"                         ........................               ",
"                         ....oooooooo............               ",
"                         ....oooooooo............               ",
"                         ....oooooooo............               ",
"                         ....oooooooo............               ",
"                         ....ooooooooXXXX....XXXX               ",
"                         ....ooooooooXXXX....XXXX               ",
"                         ....ooooooooXXXX....XXXX               ",
"                         ....ooooooooXXXX....XXXX               ",
"                         ........................               ",
"                         ........................               ",
"                         ........................               ",
"                         ........................               ",
"                         ........................               ",
"                         ........................               ",
"                         ........................               ",
"                         ........................               ",
"                             ................                   ",
"                             ................                   ",
"                             ................                   ",
"                             ................                   ",
"                                                                ",
"                                                                ",
"                                                                ",
"                                                                "
};
