/* XPM */
static char *_4ae807926ea414da6813bb5278c23da9jU1wSCSJKLkTMil[] = {
/* columns rows colors chars-per-pixel */
"64 64 4 1 ",
"ooc None",
". c #0C0C0C",
"X c #9A9A9A",
"o c #E9E9E9",
/* pixels */
"oooooooooooooooooooooooooooooooooooooooooooooooooooooooooooooooo",
"oooooooooooooooooooooooooooooooooooooooooooooooooooooooooooooooo",
"ooooooooooooooo................................ooooooooooooooooo",
"ooooooooooooooo................................ooooooooooooooooo",
"ooooooooooooooo................................ooooooooooooooooo",
"ooooooooooooooo................................ooooooooooooooooo",
"ooooooooooo........................................ooooooooooooo",
"ooooooooooo........................................ooooooooooooo",
"ooooooooooo........................................ooooooooooooo",
"ooooooooooo........................................ooooooooooooo",
"ooooooooooo........................................ooooooooooooo",
"ooooooooooo........................................ooooooooooooo",
"ooooooooooo........................................ooooooooooooo",
"ooooooooooo........................................ooooooooooooo",
"ooooooo................................................ooooooooo",
"ooooooo................................................ooooooooo",
"ooooooo................................................ooooooooo",
"ooooooo................................................ooooooooo",
"ooooooo................................................ooooooooo",
"ooooooo................................................ooooooooo",
"ooooooo................................................ooooooooo",
"ooooooo................................................ooooooooo",
"ooo....ooooXXXX................................XXXXoooo....ooooo",
"ooo....ooooXXXX................................XXXXoooo....ooooo",
"ooo....ooooXXXX................................XXXXoooo....ooooo",
"ooo....ooooXXXX................................XXXXoooo....ooooo",
"ooo....ooooooooXXXX....XXXX....XXXX....XXXX....oooooooo....ooooo",
"ooo....ooooooooXXXX....XXXX....XXXX....XXXX....oooooooo....ooooo",
"ooo....ooooooooXXXX....XXXX....XXXX....XXXX....oooooooo....ooooo",
"ooo....ooooooooXXXX....XXXX....XXXX....XXXX....oooooooo....ooooo",
"ooooooo........oooooooooooooooooooooooooooooooo........ooooooooo",
"ooooooo........oooooooooooooooooooooooooooooooo........ooooooooo",
"ooooooo........oooooooooooooooooooooooooooooooo........ooooooooo",
"ooooooo........oooooooooooooooooooooooooooooooo........ooooooooo",
"ooooooooooo........XXXXooooooooooooooooXXXX........ooooooooooooo",
"ooooooooooo........XXXXooooooooooooooooXXXX........ooooooooooooo",
"ooooooooooo........XXXXooooooooooooooooXXXX........ooooooooooooo",
"ooooooooooo........XXXXooooooooooooooooXXXX........ooooooooooooo",
"ooooooo................................................ooooooooo",
"ooooooo................................................ooooooooo",
"ooooooo................................................ooooooooo",
"ooooooo................................................ooooooooo",
"ooooooo................................................ooooooooo",
"ooooooo................................................ooooooooo",
"ooooooo................................................ooooooooo",
"ooooooo................................................ooooooooo",
"ooooooooooo....XXXX....XXXXXXXXXXXXXXXX....XXXX....ooooooooooooo",
"ooooooooooo....XXXX....XXXXXXXXXXXXXXXX....XXXX....ooooooooooooo",
"ooooooooooo....XXXX....XXXXXXXXXXXXXXXX....XXXX....ooooooooooooo",
"ooooooooooo....XXXX....XXXXXXXXXXXXXXXX....XXXX....ooooooooooooo",
"ooooooooooo........................................ooooooooooooo",
"ooooooooooo........................................ooooooooooooo",
"ooooooooooo........................................ooooooooooooo",
"ooooooooooo........................................ooooooooooooo",
"ooooooooooo........................................ooooooooooooo",
"ooooooooooo........................................ooooooooooooo",
"ooooooooooo........................................ooooooooooooo",
"ooooooooooo........................................ooooooooooooo",
"ooooooooooooooo............oooooooo............ooooooooooooooooo",
"ooooooooooooooo............oooooooo............ooooooooooooooooo",
"ooooooooooooooo............oooooooo............ooooooooooooooooo",
"ooooooooooooooo............oooooooo............ooooooooooooooooo",
"oooooooooooooooooooooooooooooooooooooooooooooooooooooooooooooooo",
"oooooooooooooooooooooooooooooooooooooooooooooooooooooooooooooooo"
};
