/* XPM */
static char *_4ae807926ea414da6813bb5278c23da9jU1wSCSJKLkTMil[] = {
/* columns rows colors chars-per-pixel */
"64 64 4 1 ",
"  c None",
". c #0C0C0C",
"X c #9A9A9A",
"o c #E9E9E9",
/* pixels */
"                                                                ",
"                                                                ",
"               ................................                 ",
"               ................................                 ",
"               ................................                 ",
"               ................................                 ",
"           ........................................             ",
"           ........................................             ",
"           ........................................             ",
"           ........................................             ",
"           ........................................             ",
"           ........................................             ",
"           ........................................             ",
"           ........................................             ",
"       ................................................         ",
"       ................................................         ",
"       ................................................         ",
"       ................................................         ",
"       ................................................         ",
"       ................................................         ",
"       ................................................         ",
"       ................................................         ",
"   ....ooooXXXX................................XXXXoooo....     ",
"   ....ooooXXXX................................XXXXoooo....     ",
"   ....ooooXXXX................................XXXXoooo....     ",
"   ....ooooXXXX................................XXXXoooo....     ",
"   ....ooooooooXXXX....XXXX....XXXX....XXXX....oooooooo....     ",
"   ....ooooooooXXXX....XXXX....XXXX....XXXX....oooooooo....     ",
"   ....ooooooooXXXX....XXXX....XXXX....XXXX....oooooooo....     ",
"   ....ooooooooXXXX....XXXX....XXXX....XXXX....oooooooo....     ",
"       ........oooooooooooooooooooooooooooooooo........         ",
"       ........oooooooooooooooooooooooooooooooo........         ",
"       ........oooooooooooooooooooooooooooooooo........         ",
"       ........oooooooooooooooooooooooooooooooo........         ",
"           ........XXXXooooooooooooooooXXXX........             ",
"           ........XXXXooooooooooooooooXXXX........             ",
"           ........XXXXooooooooooooooooXXXX........             ",
"           ........XXXXooooooooooooooooXXXX........             ",
"       ................................................         ",
"       ................................................         ",
"       ................................................         ",
"       ................................................         ",
"       ................................................         ",
"       ................................................         ",
"       ................................................         ",
"       ................................................         ",
"           ....XXXX....XXXXXXXXXXXXXXXX....XXXX....             ",
"           ....XXXX....XXXXXXXXXXXXXXXX....XXXX....             ",
"           ....XXXX....XXXXXXXXXXXXXXXX....XXXX....             ",
"           ....XXXX....XXXXXXXXXXXXXXXX....XXXX....             ",
"           ........................................             ",
"           ........................................             ",
"           ........................................             ",
"           ........................................             ",
"           ........................................             ",
"           ........................................             ",
"           ........................................             ",
"           ........................................             ",
"               ............        ............                 ",
"               ............        ............                 ",
"               ............        ............                 ",
"               ............        ............                 ",
"                                                                ",
"                                                                "
};
