/* XPM */
static char *b0464583e3174e8ce96e33721b1ff324RfV7S6MjJd9CZf84[] = {
/* columns rows colors chars-per-pixel */
"64 64 4 1 ",
"  c black",
". c gray66",
"X c #D0D0D0",
"o c white",
/* pixels */
"oooooooooooooooooooooooooooooooooooooooooooooooooooooooooooooooo",
"oooooooooooooooooooooooooooooooooooooooooooooooooooooooooooooooo",
"oooooooooooooooooooooooooooooooooooooooooooooooooooooooooooooooo",
"oooooooooooooooooooooooooooooooooooooooooooooooooooooooooooooooo",
"oooooooo             oooooXXXXoooooXXXXX             oooooooooXX",
"oooooooo             oooooXXXXoooooXXXXX             oooooooooXX",
"oooooooo             oooooXXXXoooooXXXXX             oooooooooXX",
"oooooooo             oooooXXXXoooooXXXXX             oooooooooXX",
"oooooooo    ooooo                           ooooo    ooooooooooo",
"oooooooo    ooooo                           ooooo    ooooooooooo",
"oooooooo    ooooo                           ooooo    ooooooooooo",
"oooooooo    ooooo                           ooooo    ooooooooooo",
"oooooooo    ooooo                           ooooo    ooooooooooo",
"oooooooo    ooooo                           ooooo    ooooooooooo",
"oooooooo    ooooo                           ooooo    ooooooooooo",
"oooooooo    ooooo                           ooooo    ooooooooooo",
"oooooooo    ooooo                           ooooo    ooooooooooo",
"ooo         ooooo....ooooooooooooooooooo....ooooo           oooo",
"ooo         ooooo....ooooooooooooooooooo....ooooo           oooo",
"ooo         ooooo....ooooooooooooooooooo....ooooo           oooo",
"ooo         ooooo....ooooooooooooooooooo....ooooo             oo",
"ooo         ooooo....ooooooooooooooooooo....ooooo             oo",
"ooo         ooooo                           ooooo             XX",
"ooo         ooooo                           ooooo             XX",
"ooo         ooooo                           ooooo             XX",
"            ooooo                           ooooo             XX",
"            XXXXX                           XXXXX             oo",
"            XXXXX                           XXXXX             oo",
"            XXXXX                           XXXXX               ",
"            XXXXX                           XXXXX               ",
"            XXXXX                           XXXXX               ",
"            XXXXX....ooooooooooooooooooo....XXXXX               ",
"            XXXXX....ooooooooooooooooooo....XXXXX               ",
"            XXXXX....ooooooooooooooooooo....XXXXX               ",
"            XXXXX....ooooooooooooooooooo....XXXXX               ",
"            XXXXX....ooooooooooooooooooo....XXXXX               ",
"            XXXXX                           XXXXX               ",
"            XXXXX                           XXXXX               ",
"            XXXXX                           XXXXX               ",
"            XXXXX                           XXXXX               ",
"            XXXXX                           XXXXX             XX",
"            XXXXX                           XXXXX             XX",
"            XXXXX                           XXXXX             XX",
"            XXXXX                           XXXXX             XX",
"            XXXXX                           XXXXX             XX",
"            .........XXXXXXXXXXXXXXXXXXX.........         oooooo",
"            .........XXXXXXXXXXXXXXXXXXX.........         oooooo",
"            .........XXXXXXXXXXXXXXXXXXX.........         oooooo",
"ooo         .........XXXXXXXXXXXXXXXXXXX.........         oooooo",
"ooo         .....                           .....         oooooo",
"ooo         .....                           .....         oooooo",
"ooo         .....                           .....         oooooo",
"ooo         .....                           .....         oooooo",
"ooo         .....                           .....         oooooo",
"oooooooo                                             ooooooooooo",
"oooooooo                                             ooooooooooo",
"oooooooo                                             ooooooooooo",
"oooooooo                                             ooooooooooo",
"ooooooooooooooooo                           ooooooooooooooooooXX",
"ooooooooooooooooo                           ooooooooooooooooooXX",
"ooooooooooooooooo                           ooooooooooooooooooXX",
"ooooooooooooooooo                           ooooooooooooooooooXX",
"ooooooooooooooooo                           ooooooooooooooooooXX",
"oooooooooooooooooooooooooooooooooooooooooooooooooooooooooooooooo"
};
