/* XPM */
static char *cca299aae6db4cd1b6e7a8da4c5457deNN7JicrCTFaesRXJ[] = {
/* columns rows colors chars-per-pixel */
"16 16 2 1 ",
"  c #696565",
". c white",
/* pixels */
"                ",
"... ....... ....",
"... ....... ....",
"... ....... ....",
"                ",
"....... ....... ",
"....... ....... ",
"....... ....... ",
"                ",
"... ....... ....",
"... ....... ....",
"... ....... ....",
"                ",
"....... ....... ",
"....... ....... ",
"....... ....... "
};
