/* XPM */
static char *df3b29aa34d64b2bec76c237085dced4InZkdBHs7q3PSlO5[] = {
/* columns rows colors chars-per-pixel */
"64 64 4 1 ",
"  c #777474",
". c #7D7A7A",
"X c #7F7C7C",
"o c #FEFEFE",
/* pixels */
"oooooooooooooooooooooooooooooooooooooooooooooooooooooooooooooooo",
"oooooooooooooooooooooooooooooooooooooooooooooooooooooooooooooooo",
"oooooooooooooooooooooooooooooooooooooooooooooooooooooooooooooooo",
"ooooooooooooooooooooooooooooooooooooo....ooooooooooooooooooooooo",
"ooooooooooooooooooooooooooooooooooooo....ooooooooooooooooooo....",
"oooo....oooooooooooooooooooo....ooooo....ooooooooooooooooooo... ",
"oooo....oooooooooooooooooooo....ooooo....ooooooooooooooooooo....",
"oooo....oooooooooooooooooooo....oooooooooooooooooooooooooooo....",
"oooo....oooooooooooooooooooo....oooooooooooooooo....oooooooooooo",
"oooooooooooooooo....oooooooooooooooooooooooooooo....oooooooooooo",
"oooooooooooooooo....oooooooooooooooooooooooooooo....oooooooooooo",
"oooooooooooooooo....oooooooooooooooooooooooooooo....oooooooooooo",
"oooooooooooooooo....oooooooooooooooooooooooooooooooooooooooooooo",
"oooooooooooooooooooooooooooooooooooooooooooooooooooooooooooooooo",
"oooooooooooooooooooooooooooooooooooooooooooooooooooooooooooooooo",
"ooooooooooooooooooooooooooooooooo....ooooooooooooooooooooooooooo",
"o....oooooooooooooooooooooooooooo....ooooooooooooooooooooooooooo",
"o....oooooooooooooooooooooooooooo....ooooooooooooooooooooooooooo",
"o....oooooooooooooooooooooooooooo....ooooooooooooooooooooooooooo",
"o....ooooooooooooooooooooooooooooooooooooooooooooooooooooooooooo",
"ooooooooooooooooooooooooooo....ooooooooooooooooooooooooooooo....",
"ooooooooooooooooooooooooooo....ooooooooooooooooooooooooooooo....",
"ooooooooooooooooooooooooooo....ooooooooooooooooooooooooooooo....",
"ooooooooooooooooooooooooooo....ooooooooooooooooooooooooooooo....",
"oooooooooooooooooooooooooooooooooooooooooooooooooooooooooooooooo",
"oooooooooooooooooooooooooooooooooooooooooooooooooooooooooooooooo",
"oooooooooooooooooooooooooooooooooooooooooooooooooooooooooooooooo",
"oooooooooooooooooooooooooooooooooooooooooooooooooooooooooooooooo",
"ooooo....ooooooooooooooooooooooooooo....oooooooooooooooooooooooo",
"ooooo....ooooooooooooooooooooooooooo....oooooooooooooooooooooooo",
"ooooo....ooooooooooooooooooooooooooo....oooooooooooooooooooooooo",
"ooooo....ooooooooooooooooooooooooooo....oooooooooooooooooooooooo",
"oooooooooooooooooooooooooooooooooooooooooooooooooooooooooooooooo",
"oooooooooooooooooooooooooooooooooooooooooooooooooooooooooooooooo",
"oooooooooooooooooooooooooooooooooooooooooooooooooooooooooooooooo",
"ooo....ooooooooooooooooooooooooooooooooooooooooooooooooooooooooo",
"ooo....oooooooooooooooooooooooooooooooooooooooooooooooooooo....o",
"ooo....oooooooooooooooooooo....oooooo....oooooooooooooooooo....o",
"ooo....oooooooooooooooooooo....oooooo....oooooooooooooooooo....o",
"ooooooooooooooo....oooooooo....oooooo....oooooooooooooooooo....o",
"ooooooooooooooo....oooooooo....oooooo....ooooooo....oooooooooooo",
"ooooooooooooooo....ooooooooooooooooooooooooooooo....oooooooooooo",
"ooooooooooooooo....ooooooooooooooooooooooooooooo....oooooooooooo",
"oooooooooooooooooooooooooooooooooooooooooooooooo....oooooooooooo",
"oooooooooooooooooooooooooooooooooooooooooooooooooooooooooooooooo",
"oooooooooooooooooooooooooooooooooooooooooooooooooooooooooooooooo",
"oooooooooooooooooooooooooooooooooooooooooooooooooooooooooooooooo",
"oooooooooooooooooooooooooooooooooooooooooooooooooooooooooooooooo",
"oooooooooooooooooooooooooooooooooooooooooooooooooooooooooooooooo",
".X..oooooooooooooooooooooooooooooooooooooooooooooooooooooooooooo",
"....oooooooooooooooooooooooooooooooooooooooooooooooooooooooooooo",
"....oooooooooooooooooooooooooooooooooooooooooooooooooooooooooooo",
"....oooooooooooooooooooooooo....oooooooooooooooooooooooooooooooo",
"oooooooooooooooooooooooooooo....oooooooooooooooooooooooooooo....",
"oooooooooooooooooooooooooooo....oooooooooooooooooooooooooooo....",
"oooooooooooooooooooooooooooo....oooooooooooooooooooooooooooo....",
"oooooooooooooooooooooooooooooooooooooooooooooooooooooooooooo....",
"oooooooooooooooooooooooooooooooooooooooooooooooooooooooooooooooo",
"oooooooooooooooooooooooooooooooooooooooooooooooooooooooooooooooo",
"oooooooooooooooooooooooooooooooooooooooooooooooooooooooooooooooo",
"oooo....oooooooooooooooooooooooooooo....oooooooooooooooooooooooo",
"oooo....oooooooooooooooooooooooooooo....oooooooooooooooooooooooo",
"oooo....oooooooooooooooooooooooooooo....oooooooooooooooooooooooo",
"oooo....oooooooooooooooooooooooooooo....oooooooooooooooooooooooo"
};
