/* XPM */
static char *e1cd28e8447848dcca937976b13ceeb5n688IgQyVysbaWAR[] = {
/* columns rows colors chars-per-pixel */
"16 16 2 1 ",
"  c #696565",
". c white",
/* pixels */
"................",
". ..... . ..... ",
".... ....... ...",
"................",
" ....... .......",
"....... ....... ",
"................",
". ....... ......",
"................",
". ..... . ..... ",
".... ....... ...",
"................",
" ....... .......",
"....... ....... ",
"................",
". ....... ......"
};
