/* XPM */
static char *_0f89e47dacc49abc8a70441919cebeby7Q3N6WWaZki8VwU[] = {
/* columns rows colors chars-per-pixel */
"64 64 4 1 ",
"  c None",
". c #0C0C0C",
"X c #9A9A9A",
"o c #E9E9E9",
/* pixels */
"                ................................                ",
"                ................................                ",
"                ................................                ",
"                ................................                ",
"            ........................................            ",
"            ........................................            ",
"            ........................................            ",
"            ........................................            ",
"            ....oooo................................            ",
"            ....oooo................................            ",
"            ....oooo................................            ",
"            ....oooo................................            ",
"            ....ooooooooooooXXXX........................        ",
"            ....ooooooooooooXXXX........................        ",
"            ....ooooooooooooXXXX........................        ",
"            ....ooooooooooooXXXX........................        ",
"            ............ooooooooooooXXXX................        ",
"            ............ooooooooooooXXXX................        ",
"            ............ooooooooooooXXXX................        ",
"            ............ooooooooooooXXXX................        ",
"            ....oooooooo................................        ",
"            ....oooooooo................................        ",
"            ....oooooooo................................        ",
"            ....oooooooo................................        ",
"            ............oooooooooooo....oooo........            ",
"            ............oooooooooooo....oooo........            ",
"            ............oooooooooooo....oooo........            ",
"            ............oooooooooooo....oooo........            ",
"            ....oooooooooooooooooooooooooooo....                ",
"            ....oooooooooooooooooooooooooooo....                ",
"            ....oooooooooooooooooooooooooooo....                ",
"            ....oooooooooooooooooooooooooooo....                ",
"                ....XXXXoooooooooooo........                    ",
"                ....XXXXoooooooooooo........                    ",
"                ....XXXXoooooooooooo........                    ",
"                ....XXXXoooooooooooo........                    ",
"                    ........................                    ",
"                    ........................                    ",
"                    ........................                    ",
"                    ........................                    ",
"                    ............oooooooo....                    ",
"                    ............oooooooo....                    ",
"                    ............oooooooo....                    ",
"                    ............oooooooo....                    ",
"                    XXXX....XXXXoooooooo....                    ",
"                    XXXX....XXXXoooooooo....                    ",
"                    XXXX....XXXXoooooooo....                    ",
"                    XXXX....XXXXoooooooo....                    ",
"                    ........................                    ",
"                    ........................                    ",
"                    ........................                    ",
"                    ........................                    ",
"                    ........................                    ",
"                    ........................                    ",
"                    ........................                    ",
"                    ........................                    ",
"                        ................                        ",
"                        ................                        ",
"                        ................                        ",
"                        ................                        ",
"                                                                ",
"                                                                ",
"                                                                ",
"                                                                "
};
