/* XPM */
static char *_15e2dfdd0e74ec6e6baa912ad5f016cfhunRQ744EoRLhc4[] = {
/* columns rows colors chars-per-pixel */
"64 64 4 1 ",
"  c None",
". c #0C0C0C",
"X c #9A9A9A",
"o c #E9E9E9",
/* pixels */
"ooooooooooooooooooooo................................ooooooooooo",
"ooooooooooooooooooooo................................ooooooooooo",
"ooooooooooooooooooooo................................ooooooooooo",
"ooooooooooooooooooooo................................ooooooooooo",
"oooooooooooooo   ........................................ooooooo",
"oooooooooooooo   ........................................ooooooo",
"oooooooooooooo   ........................................ooooooo",
"oooooooooooooo   ........................................ooooooo",
"oooooooooooooo   ................................oooo....ooooooo",
"oooooooooooooo   ................................oooo....ooooooo",
"oooooooooooooo   ................................oooo....ooooooo",
"oooooooooooooo   ................................oooo....ooooooo",
"oooooooooooo ........................XXXXoooooooooooo....ooooooo",
"oooooooooooo ........................XXXXoooooooooooo....ooooooo",
"oooooooooooo ........................XXXXoooooooooooo....ooooooo",
"oooooooooooo ........................XXXXoooooooooooo....ooooooo",
"oooooooooooo ................XXXXoooooooooooo............ooooooo",
"oooooooooooo ................XXXXoooooooooooo............ooooooo",
"oooooooooooo ................XXXXoooooooooooo............ooooooo",
"oooooooooooo ................XXXXoooooooooooo............ooooooo",
"oooooooooooo ................................oooooooo....ooooooo",
"oooooooooooo ................................oooooooo....ooooooo",
"oooooooooooo ................................oooooooo....ooooooo",
"oooooooooooo ................................oooooooo....ooooooo",
"oooooooooooooo   ........oooo....oooooooooooo............ooooooo",
"oooooooooooooo   ........oooo....oooooooooooo............ooooooo",
"oooooooooooooo   ........oooo....oooooooooooo............ooooooo",
"oooooooooooooo   ........oooo....oooooooooooo............ooooooo",
"ooooooooooooooooooooo....oooooooooooooooooooooooooooo....ooooooo",
"ooooooooooooooooooooo....oooooooooooooooooooooooooooo....ooooooo",
"ooooooooooooooooooooo....oooooooooooooooooooooooooooo....ooooooo",
"ooooooooooooooooooooo....oooooooooooooooooooooooooooo....ooooooo",
"ooooooooooooooooooooooooo........ooooooooooooXXXX....ooooooooooo",
"ooooooooooooooooooooooooo........ooooooooooooXXXX....ooooooooooo",
"ooooooooooooooooooooooooo........ooooooooooooXXXX....ooooooooooo",
"ooooooooooooooooooooooooo........ooooooooooooXXXX....ooooooooooo",
"ooooooooooooooooooooooooo........................oooooooooooooo ",
"ooooooooooooooooooooooooo........................oooooooooooooo ",
"ooooooooooooooooooooooooo........................oooooooooooooo ",
"ooooooooooooooooooooooooo........................oooooooooooooo ",
"ooooooooooooooooooooooooo....oooooooo............oooooooooooooo ",
"ooooooooooooooooooooooooo....oooooooo............oooooooooooooo ",
"ooooooooooooooooooooooooo....oooooooo............oooooooooooooo ",
"ooooooooooooooooooooooooo....oooooooo............oooooooooooooo ",
"ooooooooooooooooooooooooo....ooooooooXXXX....XXXXoooooooooooooo ",
"ooooooooooooooooooooooooo....ooooooooXXXX....XXXXoooooooooooooo ",
"ooooooooooooooooooooooooo....ooooooooXXXX....XXXXoooooooooooooo ",
"ooooooooooooooooooooooooo....ooooooooXXXX....XXXXoooooooooooooo ",
"ooooooooooooooooooooooooo........................oooooooooooooo ",
"ooooooooooooooooooooooooo........................oooooooooooooo ",
"ooooooooooooooooooooooooo........................oooooooooooooo ",
"ooooooooooooooooooooooooo........................oooooooooooooo ",
"ooooooooooooooooooooooooo........................oooooooooooooo ",
"ooooooooooooooooooooooooo........................oooooooooooooo ",
"ooooooooooooooooooooooooo........................oooooooooooooo ",
"ooooooooooooooooooooooooo........................oooooooooooooo ",
"oooooooooooooooooooooooooooo ................ooooooooooooooooooo",
"oooooooooooooooooooooooooooo ................ooooooooooooooooooo",
"oooooooooooooooooooooooooooo ................ooooooooooooooooooo",
"oooooooooooooooooooooooooooo ................ooooooooooooooooooo",
"ooooooooooooooooooooooooooooooooooooooooooooooooooooooooooooooo ",
"ooooooooooooooooooooooooooooooooooooooooooooooooooooooooooooooo ",
"ooooooooooooooooooooooooooooooooooooooooooooooooooooooooooooooo ",
"ooooooooooooooooooooooooooooooooooooooooooooooooooooooooooooooo "
};
